<svg xmlns="http://www.w3.org/2000/svg" viewBox="0 0 184.631 205.337"><g data-name="Layer 2"><g data-name="ART"><path d="M80.204 101.226S61.036 61.636 95.54 44.713c0 0 16.075-6.759 22.104-.662 0 0 30.211-8.379 45.36 16.43 0 0 24.851 8.131 19.964 40.028 0 0-10.171 26.82-48.403 29.614 0 0-41.569-1.441-54.361-28.897z" fill="#fdbe2a"/><path d="M134.608 130.712c-.482-.013-42.138-1.773-54.938-29.233-.301-.63-18.919-40.36 15.61-57.295.693-.293 16.14-6.688 22.537-.786 3.356-.81 31.202-6.692 45.581 16.597 2.434.909 24.817 10.159 20.153 40.602a.587.587 0 01-.03.12c-.104.272-10.748 27.205-48.913 29.995zM109.92 42.09c-6.507 0-14.043 3.121-14.152 3.167-33.54 16.452-15.222 55.322-15.033 55.712l.003.008c12.49 26.807 53.436 28.542 53.848 28.557 19.477-1.427 31.456-9.296 38.063-15.647a42.588 42.588 0 009.746-13.534c1.36-8.945 1.07-21.627-7.97-31.377a31.052 31.052 0 00-11.606-7.935.593.593 0 01-.319-.253c-14.736-24.132-44.401-16.25-44.699-16.17a.586.586 0 01-.577-.153c-1.743-1.762-4.423-2.375-7.304-2.375z" fill="#3e4147"/><path d="M133.56 108.515c-29.604-3.942-51.923-25.883-49.85-49.007a32.672 32.672 0 011.728-7.94c-20.128 18.881-5.234 49.658-5.234 49.658 12.792 27.456 54.361 28.897 54.361 28.897 44.06 12.448 48.403-29.614 48.403-29.614a52.11 52.11 0 00.626-8.78c-10.024 12.564-29.036 19.581-50.034 16.786z" fill="#e8a91b"/><path d="M83.4 88.7a1.017 1.017 0 01-.45-.104 1.03 1.03 0 01-.476-1.378c.147-.298 14.975-29.886 48.376-20.35a1.03 1.03 0 01-.566 1.982c-31.759-9.075-45.817 18.987-45.955 19.27a1.033 1.033 0 01-.929.58zM158.7 120.786a1.033 1.033 0 01-.94-1.452c.071-.16 7.043-16.062 1.423-29.605-2.933-7.07-8.794-12.321-17.418-15.606a1.03 1.03 0 11.735-1.926c9.18 3.496 15.435 9.133 18.592 16.754 5.957 14.374-1.145 30.544-1.45 31.225a1.032 1.032 0 01-.941.61z" fill="#3e4147"/><path d="M149.861 133.532a56.403 56.403 0 01-15.463-2.384c-2.622-.129-42.576-2.557-55.126-29.481-.37-.775-19.041-40.784 15.814-57.88.721-.303 16.15-6.69 22.854-.87 4.286-.992 31.486-6.207 45.754 16.72 3.137 1.213 24.924 10.802 20.293 41.028-.07.699-2.048 18.406-15.672 27.597a32.26 32.26 0 01-18.454 5.27zm-39.938-91.016c-6.382 0-13.877 3.103-13.984 3.148-13.835 6.788-20.576 18.084-19.978 33.55a61.167 61.167 0 005.17 21.563l.007.014c12.374 26.556 53.054 28.288 53.464 28.302a1.028 1.028 0 01.25.04c13.235 3.816 24.101 2.95 32.296-2.572 12.824-8.64 14.777-25.985 14.795-26.16 4.697-30.667-18.28-38.618-19.261-38.941a1.037 1.037 0 01-.558-.443c-14.557-23.838-43.91-16.055-44.206-15.974a1.023 1.023 0 01-1.007-.268c-1.656-1.674-4.217-2.259-6.988-2.259z" fill="#3e4147"/><path d="M147.016 37.253c-3.071 2.56-11.346 9.89-15.625 17.87a1.107 1.107 0 01-1.71.3l-5.412-4.544a1.136 1.136 0 00-1.76 1.36l2.653 6.317a1.178 1.178 0 01-.533 1.527l-10.406 5.074a1.216 1.216 0 00.273 2.24l13.966 3.718a1.234 1.234 0 01.876.937l2.022 9.404a1.153 1.153 0 002.112.434l3.999-6.726a1.098 1.098 0 011.245-.5l10.578 2.905a1.15 1.15 0 001.222-1.77c-1.887-3.055-4.743-7.75-4.337-7.546.424.214 5.576-3.817 8.56-6.2a1.225 1.225 0 00-.587-2.133l-9.475-1.55a1.24 1.24 0 01-.929-1.668c1.318-3.315 4.637-11.474 6.473-14.284a1.205 1.205 0 00.083-1.122l-1.49-3.546a1.156 1.156 0 00-1.798-.497z" fill="#b5c933"/><path d="M132.53 83.462a2.123 2.123 0 01-.35-.028 2.24 2.24 0 01-1.827-1.76l-2.023-9.405a.207.207 0 00-.133-.157l-13.966-3.719a2.243 2.243 0 01-1.66-1.976 2.168 2.168 0 011.2-2.186l10.405-5.075a.16.16 0 00.035-.2l-2.653-6.318a2.188 2.188 0 01.704-2.654 2.13 2.13 0 012.67.105l5.412 4.545a.145.145 0 00.099.036c4.363-8.1 12.581-15.431 15.913-18.21a2.094 2.094 0 011.874-.43 2.254 2.254 0 011.535 1.321l1.49 3.546a2.223 2.223 0 01-.172 2.085c-1.778 2.724-5.052 10.769-6.377 14.1a.21.21 0 00.019.177.177.177 0 00.12.094l9.473 1.549a2.257 2.257 0 011.806 1.666 2.183 2.183 0 01-.742 2.291 93.095 93.095 0 01-7.869 5.914c.472.86 1.527 2.675 3.88 6.483a2.237 2.237 0 01-.096 2.53 2.125 2.125 0 01-2.276.777l-10.578-2.906-4.085 6.76a2.122 2.122 0 01-1.828 1.045zm-9.005-31.836a.069.069 0 00-.04.018c-.073.054-.052.133-.026.195l2.653 6.318a2.209 2.209 0 01-1.032 2.852l-10.405 5.076c-.018.008-.061.029-.051.132a.195.195 0 00.137.184l13.966 3.719a2.278 2.278 0 011.619 1.716l2.022 9.404a.18.18 0 00.145.159l4.072-6.762a2.117 2.117 0 012.403-.968l10.579 2.906c.104-.058.137-.13.073-.235-4.956-8.02-4.903-8.077-4.253-8.786a1.054 1.054 0 01.699-.329c.372-.184 1.938-1.132 8.01-5.977a.141.141 0 00.033-.159.19.19 0 00-.145-.152l-9.474-1.549a2.228 2.228 0 01-1.58-1.114 2.258 2.258 0 01-.14-1.953c1.348-3.39 4.687-11.587 6.567-14.467a.183.183 0 00-.003-.157l-1.49-3.548a.183.183 0 00-.123-.116l-.725-.78.66.792c-3.24 2.7-11.223 9.819-15.376 17.565a2.114 2.114 0 01-1.467 1.084 2.162 2.162 0 01-1.815-.481l-5.412-4.544a.14.14 0 00-.08-.043z" fill="#3e4147"/><path d="M139.72 65.633c.176 1.286 6.354 7.693 6.354 7.693l-8.317-2.61-4.925 6.102-.816-7.95-9.357-2.601 8.692-3.65s6.857-12.679 12.653-17.6c0 0-5.1 14.66-4.284 20.616z" fill="#cedd3e"/><path d="M4.794 133.42V48.86A4.385 4.385 0 015.7 46.19l14.335-18.696a4.385 4.385 0 00.905-2.6l.136-2.827a4.385 4.385 0 013.279-4.175L68.04 1.175a4.385 4.385 0 015.49 4.257l-.024 1.59a4.384 4.384 0 00.923 2.704l21.877 28.152a4.385 4.385 0 01.922 2.685l.103 90.65a4.385 4.385 0 01-2.596 4.008l-45.55 20.346a4.385 4.385 0 01-3.668-.042L7.298 137.38a4.385 4.385 0 01-2.504-3.96z" fill="#d8e9f7"/><path d="M47.397 156.544a4.972 4.972 0 01-2.135-.483L7.044 137.916A4.998 4.998 0 014.2 133.42V48.859a5.006 5.006 0 011.027-3.03l14.335-18.696a3.765 3.765 0 00.782-2.247l.137-2.846a4.986 4.986 0 013.722-4.721L67.828.619a4.974 4.974 0 016.296 4.814L74.1 7.03a3.799 3.799 0 00.798 2.33l21.877 28.153a5.003 5.003 0 011.047 3.05l.103 90.649a4.982 4.982 0 01-2.948 4.551l-45.55 20.346a4.963 4.963 0 01-2.03.435zM69.154 1.624a3.8 3.8 0 00-.964.126L24.566 18.448a3.83 3.83 0 00-2.897 3.629l-.137 2.846a4.998 4.998 0 01-1.027 2.933L6.17 46.552a3.813 3.813 0 00-.782 2.307v84.56a3.807 3.807 0 002.165 3.424l38.219 18.146a3.783 3.783 0 003.17.036l45.55-20.346a3.797 3.797 0 002.245-3.466l-.103-90.649a3.812 3.812 0 00-.798-2.322L73.96 10.089a4.993 4.993 0 01-1.047-3.07l.024-1.597a3.797 3.797 0 00-3.783-3.797z" fill="#3e4147"/><path fill="#d8e9f7" d="M71.748 9.029l-44.79 17.714"/><path d="M26.959 27.774a1.031 1.031 0 01-.38-1.99L71.37 8.07a1.031 1.031 0 01.758 1.918l-44.79 17.714a1.033 1.033 0 01-.378.072zM47.341 62.731a1.038 1.038 0 01-.33-.055L7.053 49.147a1.031 1.031 0 11.661-1.953l39.57 13.398L94.5 39a1.03 1.03 0 01.857 1.875L47.77 62.637a1.025 1.025 0 01-.429.094z" fill="#3e4147"/><path d="M47.342 58.905a1.029 1.029 0 01-.857-.457L27.583 30.27a1.03 1.03 0 111.711-1.148l18.903 28.177a1.031 1.031 0 01-.855 1.606z" fill="#3e4147"/><path d="M47.341 124.751l49.918-41.19.072 49.186a4.11 4.11 0 01-2.596 3.76l-45.55 19.084a4.649 4.649 0 01-3.668-.04l-38.219-17.02a4.101 4.101 0 01-2.504-3.715v-27.759z" fill="#4495d7"/><path fill="#eff6fb" d="M97.331 79.979l-49.99 40.551-42.547-16.162v6.908l42.547 16.813 49.915-40.324.075-7.786z"/><path d="M47.341 129.12a1.042 1.042 0 01-.379-.072L4.416 112.235a1.031 1.031 0 01-.652-.96v-6.906a1.03 1.03 0 011.397-.964l41.992 15.95 49.529-40.177a1.03 1.03 0 011.68.81l-.075 7.787a1.032 1.032 0 01-.383.792L47.99 128.891a1.033 1.033 0 01-.648.23zM5.825 110.576l41.336 16.335L96.23 87.27l.05-5.11-48.29 39.17a1.035 1.035 0 01-1.015.164l-41.15-15.631z" fill="#3e4147"/><path d="M47.397 156.98a5.42 5.42 0 01-2.323-.523L6.856 138.31a5.439 5.439 0 01-3.092-4.891V48.859a5.446 5.446 0 011.117-3.295l14.335-18.696a3.334 3.334 0 00.692-1.989l.137-2.86a5.422 5.422 0 013.99-5.108L67.672.21a1.087 1.087 0 01.11-.035 5.417 5.417 0 016.78 5.258l-.024 1.603a3.358 3.358 0 00.705 2.055L97.12 37.245a5.446 5.446 0 011.139 3.317l.103 90.65a5.42 5.42 0 01-3.207 4.95l-45.55 20.346a5.414 5.414 0 01-2.208.472zM68.352 2.16l-43.63 16.697a.872.872 0 01-.108.034 3.365 3.365 0 00-2.508 3.194l-.138 2.86a5.424 5.424 0 01-1.115 3.178L6.517 46.818a3.377 3.377 0 00-.692 2.041v84.56a3.367 3.367 0 001.915 3.029l38.219 18.145a3.34 3.34 0 002.805.033l45.55-20.346a3.357 3.357 0 001.986-3.067l-.103-90.649a3.376 3.376 0 00-.706-2.055L73.615 10.358a5.431 5.431 0 01-1.14-3.34l.025-1.602a3.354 3.354 0 00-4.148-3.257z" fill="#3e4147"/><path d="M47.341 152.921a1.031 1.031 0 01-1.03-1.03V64.625a1.03 1.03 0 112.061 0v87.264a1.031 1.031 0 01-1.03 1.031zM64.858 59.305a1.303 1.303 0 01.514-.52c.137-.06.327-.04.427.417.049.265.056.62.082 1.002l.034.738c.255 2.142.406 3.973.481 5.766.023 1.064.106 2.03.187 3.068.069.83.135 1.73.18 2.678.065.974.129 1.948.194 2.886.201 3.206.409 6.229.454 8.968l.012.21-.1.152a1.335 1.335 0 01-.457.493c-.816.368-.9-2.317-.958-4.083-.011-.245-.004-.463-.017-.637a517.272 517.272 0 00-.902-15.178c-.654 3.59-1.957 9.518-2.552 11.327l-.045.2-.097.043-.097.044c-.68.307-.992-.7-1.234-1.486-.033-.164-.086-.32-.12-.448-.739-2.568-1.442-5.654-2.082-8.34l.002-.072c-.339 2.196-.5 4.777-.664 7.466-.05.954-.1 1.909-.172 2.908-.089.972-.156 1.862-.225 2.788-.095 1.154-.172 2.335-.333 3.77l-.002.036c-.027.263-.059.636-.113 1.126-.089.972-.204 2.17-.371 3.177-.074.5-.335 2.051-.899 2.305a.425.425 0 01-.455-.117l-.073-.11.007-.219c.143-1.462.307-2.97.454-4.54.303-2.824.589-5.711.818-8.645.097-1.19.194-2.418.27-3.562.23-3.507.452-6.832.976-9.97l.045-.2.1-.117a1.474 1.474 0 01.293-.204c.35-.158.65.03.902.525a5.97 5.97 0 01.455 1.299 19.618 19.618 0 01.573 2.393c.046.337.114.593.162.894.489 2.037 1.072 4.102 1.585 5.985a82.89 82.89 0 001.766-8.967c.356-2.095.665-3.954.91-5.033l.024-.118zM69.713 67.002c.081-3.082.166-6.273.477-9.352l.022-.08.022-.082a1.132 1.132 0 01.56-.755.469.469 0 01.644.211l.036.092-.004.109c-.091 1.617-.163 3.226-.252 4.807-.261 5.062-.527 10.27-.586 15.599-.01.328-.001.61-.01.9a23.913 23.913 0 01-.23 4.69l-.024.155-.1.116a1.529 1.529 0 01-.452.384c-.175.08-.269.014-.322-.106-.28-.232-.22-.904-.167-1.358a3.325 3.325 0 00.033-.409c.02-2.41.104-4.955.164-7.383.034-1.628.089-3.3.103-4.92zM80.315 78.162l-.164.324a2.21 2.21 0 01-1.068 1.056 2.548 2.548 0 01-.695.206 4.435 4.435 0 00-.6.2l-.02.008-.291.132a15.121 15.121 0 01-4.152 1.121l-.134-.012-.011-.245c-.11-4.25.102-9.004.31-13.612.165-3.872.354-7.898.338-11.51a1.29 1.29 0 01.074-.536.645.645 0 01.34-.404 1.013 1.013 0 01.326-.04c.039-.017.096-.007.115-.016l.117-.052.052.156a13.606 13.606 0 01.145 3.768c-.031.372-.043.736-.055 1.1-.025.763-.011 1.51-.015 2.228a27.81 27.81 0 01-.034 2.81c-.41 5.524-.57 9.823-.546 14.363.252-.078.521-.128.792-.215.405-.074.83-.195 1.255-.315a2.165 2.165 0 00.445-.165 9.63 9.63 0 00.838-.45c.252-.114.526-.273.759-.378.621-.28 1.316-.45 1.753.248zM83.515 69.767a62.738 62.738 0 01-.163 7.346l-.03.3-.156.107-.194.088a.501.501 0 01-.176.115.416.416 0 01-.27.05l-.076-.002-.037-.055a4.726 4.726 0 01-.15-1.868c.007-.18.013-.363.018-.544.013-1.547-.013-3.111-.035-4.786-.045-2.738-.084-5.622.069-8.558.171-2.908.244-6.309.207-9.875l.002-.036a1.009 1.009 0 01.431-.912.812.812 0 01.516.018c.02-.009.02-.009.038.019l.076.002.034.164a55.69 55.69 0 01.016 8.305c-.042 1.272-.104 2.59-.124 3.781 1.524-2.694 3.04-5.742 4.72-9.153a5.926 5.926 0 00.27-.622c.311-.75.686-1.672 1.152-1.883.214-.096.402-.001.568.21l.074.075-.005.145a3.739 3.739 0 01-.635 1.863 1.78 1.78 0 00-.203.343 42.667 42.667 0 00-1.21 2.48c-.432.912-.864 1.86-1.333 2.716.133.621.264 1.314.394 2.008a59.828 59.828 0 001.297 6.007c.294.979.626 1.939.939 2.908a17.352 17.352 0 01.85 3.271l.03.274-.16.215a1.123 1.123 0 01-.413.33c-.72.324-1.04-1-1.28-1.86-.033-.163-.067-.291-.1-.419a77.628 77.628 0 01-2.58-10.695 24.728 24.728 0 00-1.387 2.632c-.309.64-.657 1.335-1.023 2.002.002 1.11.021 2.283.039 3.494zM23.362 51.48a1.031 1.031 0 01-1.03-1.032v-21.83a1.03 1.03 0 112.061 0v21.83a1.031 1.031 0 01-1.03 1.031zM40.023 96.817a2.926 2.926 0 01-.997-.175L11.094 86.53a2.94 2.94 0 01-1.932-2.757V61.165a2.931 2.931 0 013.916-2.761L41.01 68.38a2.938 2.938 0 011.945 2.761v22.744a2.932 2.932 0 01-2.932 2.932zM12.09 60.294a.872.872 0 00-.867.87v22.608a.874.874 0 00.573.818l27.932 10.113a.87.87 0 001.166-.818V71.141a.873.873 0 00-.578-.82l-27.93-9.976a.887.887 0 00-.296-.051z" fill="#3e4147"/><path d="M132.06 142.3l.5 1.551a111.938 111.938 0 00-12.625-.708c-19.416 0-36.633 4.888-47.35 12.425v-3.074l-11.278-11.891-.214 34.048.038.05c.376 6.207 4.512 12.32 10.98 17.061a1.273 1.273 0 001.552-.084l35.53-20.944.3 31.902a1.225 1.225 0 001.059 1.198 56.296 56.296 0 009.383.47c32.497-.089 58.842-13.691 58.842-30.58l-.239-35.362z" fill="#df642f"/><path d="M118.408 205.337a50.782 50.782 0 01-7.995-.481 2.266 2.266 0 01-1.95-2.21l-.285-30.118-33.992 20.037a2.328 2.328 0 01-2.684.028c-6.848-5.02-10.876-11.225-11.377-17.508l-.027-.035-.036-.406.23-36.61 13.324 14.05v1.548c11.397-7.338 28.133-11.52 46.319-11.52 3.74 0 7.486.183 11.158.547l-.41-1.277 48.879-4.141.246 36.475c0 8.57-6.318 16.563-17.79 22.513-11.239 5.83-26.183 9.063-42.08 9.106l-1.53.002zm-8.201-36.397l.317 33.687a.196.196 0 00.167.186 55.299 55.299 0 009.24.46c31.88-.087 57.816-13.343 57.816-29.55l-.232-34.24-44.076 3.735.59 1.837-1.586-.18a111.182 111.182 0 00-12.508-.7c-18.382 0-35.861 4.574-46.757 12.236l-1.624 1.142v-4.647l-9.233-9.735-.196 31.244.035.223c.344 5.687 4.193 11.625 10.56 16.293.046.029.138.023.422-.143z" fill="#3e4147"/><path fill="#fdbe2a" d="M72.585 152.494l.181 6.168v33.347l36.5-13.482-.074-7.793 9.954-32.488-46.561 14.248z"/><path d="M72.766 193.04a1.032 1.032 0 01-1.03-1.032v-33.345l-.181-6.138a1.03 1.03 0 01.728-1.016l46.561-14.249a1.03 1.03 0 011.288 1.287l-9.907 32.336.071 7.634a1.03 1.03 0 01-.673.977l-36.5 13.481a1.03 1.03 0 01-.357.065zm.873-39.79l.157 5.382v31.897l34.432-12.718-.066-7.067a1.034 1.034 0 01.045-.312l9.385-30.633z" fill="#3e4147"/><path d="M119.935 109.797c-32.498 0-58.842 13.691-58.842 30.58 0 6.856 4.341 13.185 11.673 18.285l44.714-16.516-8.288 28.588a106.636 106.636 0 0010.743.224c32.497 0 58.842-13.692 58.842-30.58s-26.345-30.581-58.842-30.581z" fill="#f3783c"/><path d="M115.25 172.013a61.335 61.335 0 01-6.16-.254l-1.233-.122 8.064-27.816-43.302 15.995-.442-.307c-7.925-5.514-12.115-12.13-12.115-19.131 0-17.431 26.859-31.613 59.873-31.613 33.014 0 59.873 14.182 59.873 31.613s-26.859 31.61-59.873 31.61c-.825 0-1.627.007-2.416.013-.766.006-1.52.012-2.268.012zm-4.717-2.2c2.32.163 4.588.145 6.97.126.794-.006 1.602-.013 2.432-.013 31.877 0 57.812-13.255 57.812-29.548s-25.935-29.55-57.812-29.55-57.811 13.256-57.811 29.55c0 6.17 3.73 12.085 10.793 17.13l46.122-17.037z" fill="#3e4147"/><ellipse cx="95.488" cy="167.199" rx="4.044" ry="3.349" transform="rotate(-68.956 95.488 167.2)" fill="#e8a91b"/><ellipse cx="84.989" cy="162.275" rx="4.044" ry="3.349" transform="rotate(-68.956 84.99 162.275)" fill="#e8a91b"/><ellipse cx="104.172" cy="156.127" rx="4.293" ry="3.555" transform="rotate(-68.956 104.172 156.127)" fill="#e8a91b"/><ellipse cx="83.304" cy="177.49" rx="6.295" ry="5.213" transform="rotate(-68.956 83.304 177.49)" fill="#e8a91b"/><path d="M108.25 170.497l1.053-3.883a3.142 3.142 0 00-1.39-.834c-2.37-.912-5.182.668-6.283 3.53s-.097 6.105 2.308 6.918c1.73.584 2.912.574 4.262-.476z" fill="#e8a91b"/><circle cx="28.551" cy="162.275" r="27.518" fill="#cedd3e"/><path d="M28.591 190.826q-.953 0-1.914-.064a28.473 28.473 0 111.914.064zm-.078-55.04a26.505 26.505 0 101.775.058q-.89-.058-1.775-.057z" fill="#3e4147"/><ellipse cx="33.918" cy="143.941" rx="2.464" ry="4.928" transform="rotate(-82.262 33.918 143.941)" fill="#cedd3e"/><path d="M34.882 147.503a10.608 10.608 0 01-1.435-.1 9.02 9.02 0 01-3.798-1.353 3.102 3.102 0 01-1.636-2.91c.268-1.974 3.007-3.117 6.375-2.662 3.366.457 5.702 2.291 5.434 4.266a3.101 3.101 0 01-2.353 2.369 8.12 8.12 0 01-2.587.39zm-1.924-5.061a6.096 6.096 0 00-1.926.28c-.635.216-.951.512-.976.695s.2.552.755.93a7.77 7.77 0 005.992.814c.636-.216.951-.512.976-.695.068-.5-1.273-1.62-3.668-1.945a8.634 8.634 0 00-1.153-.079zm5.843 2.163z" fill="#3e4147"/></g></g></svg>
